<?xml version="1.0" standalone="no"?>
<!DOCTYPE svg PUBLIC "-//W3C//DTD SVG 20010904//EN"
 "http://www.w3.org/TR/2001/REC-SVG-20010904/DTD/svg10.dtd">
<svg version="1.0" xmlns="http://www.w3.org/2000/svg"
 width="300.000000pt" height="300.000000pt" viewBox="0 0 300.000000 300.000000"
 preserveAspectRatio="xMidYMid meet">
<metadata>
Created by potrace 1.11, written by Peter Selinger 2001-2013
</metadata>
<g transform="translate(0.000000,300.000000) scale(0.100000,-0.100000)"
fill="#000000" stroke="none">
<path d="M1963 2618 c-46 -12 -73 -55 -131 -203 -27 -71 -107 -274 -177 -450
-141 -358 -298 -765 -322 -838 -9 -26 -17 -46 -19 -45 -1 2 -7 48 -14 103 -12
108 -48 406 -105 874 -20 161 -42 309 -50 328 -24 56 -69 106 -124 136 -28 15
-51 24 -51 21 0 -4 -6 -1 -14 5 -22 19 -145 41 -227 41 -138 0 -146 -24 -112
-325 74 -640 204 -1356 273 -1501 55 -114 146 -177 360 -249 186 -63 263 -65
321 -9 43 41 428 829 552 1131 14 32 55 130 92 218 159 379 187 488 146 562
-41 72 -237 191 -341 206 -14 2 -39 0 -57 -5z"/>
</g>
</svg>
